<svg version="1.1" id="Layer_1" xmlns="http://www.w3.org/2000/svg" xmlns:xlink="http://www.w3.org/1999/xlink" x="0px" y="0px"
	 width="100%" viewBox="0 0 864 960" enable-background="new 0 0 864 960" xml:space="preserve">
<path fill="#000000" opacity="1.000000" stroke="none" 
	d="
M196.127457,206.974518 
	C200.570297,209.645996 204.798157,212.008255 208.782867,214.726898 
	C211.398087,216.511200 213.392532,216.302124 215.966370,214.556412 
	C226.713074,207.267563 238.081390,207.198547 249.705017,212.279221 
	C251.307938,212.979843 253.436508,213.566696 253.229752,215.934402 
	C253.004745,218.510788 250.741058,218.779007 248.813339,219.202087 
	C232.936935,222.686478 229.642792,227.788452 229.765335,244.160324 
	C230.045959,281.649078 230.514587,319.145599 229.473404,356.633850 
	C229.395477,359.439697 229.143188,362.287262 230.617462,364.867432 
	C232.867020,365.235901 233.672760,363.480103 234.601135,362.261169 
	C265.581390,321.585022 298.637604,282.490326 327.610748,240.286255 
	C332.399261,233.310974 331.362915,228.810242 324.286560,224.013809 
	C320.636871,221.539993 316.520477,220.236649 312.428192,218.824783 
	C310.814514,218.268036 309.127441,217.575272 309.134369,215.560410 
	C309.140167,213.875168 310.585266,213.078308 311.911560,212.305923 
	C320.998016,207.014282 329.894653,208.227890 338.316376,213.607773 
	C341.613434,215.713989 343.605652,215.453156 346.523743,212.969452 
	C357.389557,203.721161 355.608185,204.050888 365.920197,213.055801 
	C369.306702,216.013016 371.799286,216.235458 375.342529,213.598785 
	C383.376831,207.620132 391.803314,208.474411 400.235779,212.894089 
	C401.588593,213.603134 402.985779,214.334793 402.868744,216.158585 
	C402.750793,217.996338 401.192230,218.509445 399.814209,219.067978 
	C392.257080,222.131027 384.294128,224.611923 378.466888,230.654938 
	C371.998230,237.363129 365.841278,244.382156 359.736328,251.428497 
	C350.255188,262.371613 340.691956,273.258118 331.607697,284.526703 
	C321.587280,296.956543 312.124603,309.834442 302.310852,322.432953 
	C295.760315,330.842316 289.115417,339.182922 282.307953,347.384338 
	C280.281799,349.825348 279.945129,351.907257 281.500153,354.585144 
	C287.184631,364.374268 292.832458,374.185059 298.419861,384.029816 
	C299.943054,386.713654 302.359283,386.805969 304.904968,386.667053 
	C312.515991,386.251587 319.332550,388.695038 325.764954,392.455780 
	C328.764435,394.209442 329.135651,395.942627 325.622559,397.719177 
	C317.232727,401.961853 314.347992,409.038818 318.635895,417.445068 
	C325.060577,430.040253 332.083832,442.339935 339.126801,454.607849 
	C355.625977,483.347137 372.353302,511.955536 388.839050,540.702454 
	C393.059753,548.062256 398.994171,551.701355 407.497559,551.694885 
	C418.672699,551.686401 424.605957,561.773682 419.647491,571.900208 
	C418.314758,574.621887 415.957916,574.328735 413.645874,574.332153 
	C398.646576,574.354309 383.647247,574.369751 368.647949,574.374695 
	C342.649139,574.383301 316.649261,574.262085 290.652435,574.490540 
	C285.618011,574.534729 283.572845,572.871643 283.922119,567.957153 
	C284.051666,566.134216 283.924530,564.292603 283.904968,562.459595 
	C283.816742,554.186646 286.068237,551.891235 294.494904,551.684875 
	C295.660980,551.656311 296.828247,551.680176 297.994598,551.659241 
	C312.864929,551.393250 318.146149,540.642761 311.653992,528.306885 
	C299.257965,504.752869 285.182831,482.082581 271.807526,459.043823 
	C262.276001,442.625885 252.752563,426.203278 243.213516,409.789734 
	C242.460648,408.494263 241.589493,407.268097 240.815262,405.984436 
	C238.687637,402.456848 236.805542,402.897461 234.416672,405.946655 
	C230.887527,410.451294 229.206619,415.169617 229.242981,421.084808 
	C229.471390,458.248291 229.362000,495.414001 229.308884,532.578857 
	C229.303802,536.130005 229.824326,539.510132 231.037292,542.844604 
	C233.357986,549.224182 238.252670,552.261902 245.007751,551.359314 
	C256.915649,549.768372 264.799316,560.092529 260.408051,571.427124 
	C259.480530,573.821228 257.756989,574.766602 255.449738,574.900330 
	C253.124207,575.035095 250.787262,574.992737 248.455307,574.993774 
	C211.123993,575.009521 173.792633,575.051575 136.461380,575.007751 
	C127.692093,574.997498 127.665237,574.834229 127.652390,565.958618 
	C127.632309,552.088745 127.632324,552.088806 141.545654,550.890808 
	C154.801407,549.749451 158.668961,545.577087 158.685349,531.957153 
	C158.728699,495.958862 158.695541,459.960510 158.680099,423.962189 
	C158.674911,411.856903 152.853546,403.604706 141.588181,399.185394 
	C139.164673,398.234711 135.136826,398.711609 135.039566,394.951996 
	C134.955139,391.687714 138.552460,390.911041 140.790390,389.299835 
	C144.416031,386.689453 148.563309,386.601166 152.761108,386.732391 
	C156.889038,386.861389 158.729553,385.121002 158.722900,380.759399 
	C158.648987,332.261841 158.611221,283.763733 158.796860,235.266693 
	C158.827499,227.268555 152.236847,222.931076 144.247864,219.552048 
	C142.884323,218.975327 141.368042,218.709229 139.895569,218.453720 
	C138.184189,218.156754 136.364883,217.867142 136.253113,215.766190 
	C136.144135,213.718018 137.998672,213.152054 139.530304,212.510681 
	C151.008057,207.704361 162.278839,207.998322 172.974991,214.527206 
	C175.925598,216.328247 177.948105,216.256378 180.551300,214.257492 
	C183.451004,212.030945 186.613831,210.142319 189.698257,208.162888 
	C191.550232,206.974365 193.503571,206.041565 196.127457,206.974518 
z"/>
<path fill="#000000" opacity="1.000000" stroke="none" 
	d="
M705.381592,472.725311 
	C712.457520,495.844757 719.436279,518.577026 726.470276,541.292175 
	C728.704224,548.505981 729.753906,549.236633 737.438721,549.671570 
	C738.270325,549.718689 739.112976,549.819092 739.935608,549.739807 
	C755.192688,548.270020 757.566895,559.085144 756.327881,570.497192 
	C755.918701,574.265442 753.643311,576.052002 749.981384,576.237244 
	C748.651123,576.304565 747.315735,576.282837 745.982727,576.282898 
	C706.321106,576.284912 666.659424,576.287903 626.997803,576.281921 
	C619.038757,576.280701 617.917603,575.140320 617.721375,566.985229 
	C617.385864,553.038513 617.832153,552.502136 631.379272,550.449524 
	C632.530762,550.275024 633.662170,549.906311 634.816895,549.823425 
	C648.961853,548.808105 650.931274,540.481812 647.914795,529.677368 
	C640.318054,502.467102 631.726074,475.534485 623.502197,448.499939 
	C623.080261,447.112915 622.802246,445.554352 621.456238,444.789642 
	C590.235535,461.438660 561.538147,452.300018 533.326050,436.753601 
	C531.614563,437.197601 531.467346,438.806091 531.031860,440.209808 
	C521.276001,471.657990 511.278442,503.035919 503.086121,534.943787 
	C501.094147,542.702332 504.289307,547.938538 512.132690,549.829651 
	C515.839417,550.723328 519.689026,551.014404 523.412598,551.851257 
	C526.922852,552.640198 529.474487,554.555481 529.596069,558.612427 
	C529.625671,559.599243 529.989563,560.571838 530.079407,561.561890 
	C531.201538,573.929749 529.070984,576.301208 516.858154,576.304077 
	C491.361389,576.309998 465.864655,576.323303 440.367889,576.309326 
	C432.588165,576.305054 431.728546,575.428650 431.630615,567.778015 
	C431.617828,566.778259 431.619751,565.778015 431.588684,564.778809 
	C431.247101,553.786987 432.231476,552.586060 443.042450,550.998718 
	C444.522675,550.781372 446.042328,550.829590 447.521149,550.605835 
	C455.639404,549.377441 461.667511,546.052979 464.261749,537.284424 
	C473.838531,504.914703 483.808716,472.661194 493.677490,440.378235 
	C495.719910,433.697113 498.047089,427.103088 500.092010,420.422729 
	C503.160889,410.397675 497.461334,398.868134 487.722351,395.192932 
	C485.967438,394.530670 484.212769,393.858765 483.894684,391.710327 
	C483.558502,389.439728 485.412689,388.575226 486.839325,387.479950 
	C492.765839,382.930054 499.575348,381.651794 506.695435,383.012482 
	C510.324036,383.705902 511.806946,382.808014 512.840210,379.402496 
	C521.533264,350.752136 530.369385,322.145233 539.123901,293.513458 
	C544.959290,274.428619 550.671448,255.305908 556.555908,236.236298 
	C559.898071,225.405594 555.471863,216.681870 544.531860,213.056000 
	C543.744324,212.794998 542.930542,212.610657 542.149658,212.332703 
	C539.505127,211.391373 535.278870,212.355118 534.941589,208.420029 
	C534.588013,204.295456 538.873108,203.892456 541.640991,202.905045 
	C552.460938,199.045135 563.003174,199.890228 572.729553,206.162659 
	C575.809937,208.149185 578.098633,207.930649 580.869507,205.962204 
	C584.124695,203.649689 587.693970,201.772522 590.900269,199.400040 
	C593.729065,197.306900 596.324036,197.175262 599.130737,199.167816 
	C599.673584,199.553146 600.270264,199.864273 600.802185,200.262924 
	C607.625854,205.376663 613.666260,208.693726 622.975769,203.183319 
	C631.759705,197.984009 642.352173,199.579758 651.831299,204.282913 
	C653.771057,205.245316 656.017395,206.063263 655.568298,208.879517 
	C655.130005,211.628448 652.818604,212.010788 650.648499,212.219742 
	C642.619751,212.992752 637.110291,217.251953 633.505859,224.284073 
	C632.550537,226.147812 632.418762,227.879440 633.052246,230.000870 
	C647.563843,278.589874 661.981812,327.206818 676.418396,375.818176 
	C678.464600,382.708160 678.457825,382.486206 686.041260,382.149078 
	C692.718201,381.852173 698.914795,383.717957 704.095947,388.143677 
	C707.273560,390.858002 706.891418,393.214600 703.187073,394.923096 
	C689.532043,401.220917 685.910278,409.374847 690.338135,423.692291 
	C695.350159,439.898315 700.318481,456.117859 705.381592,472.725311 
M555.064941,417.427979 
	C560.463379,421.942047 566.504517,425.516815 572.748596,428.623566 
	C579.959900,432.211517 587.660461,434.212158 595.875610,433.668701 
	C605.693481,433.019135 614.122131,423.092529 611.051880,415.023499 
	C607.907959,406.760773 602.194397,400.651031 593.440735,397.867279 
	C591.196228,397.153473 587.902161,397.456757 587.692871,394.126343 
	C587.510742,391.227997 590.314819,390.084167 592.336365,388.743347 
	C593.692871,387.843628 595.303955,387.184235 596.893616,386.802917 
	C606.041138,384.608673 606.260437,384.582001 603.483276,375.713806 
	C594.942749,348.441528 587.945374,320.708893 578.904724,293.587738 
	C578.398987,292.070618 578.482300,290.200989 576.404907,289.687683 
	C574.899719,290.210846 574.692444,291.594482 574.191406,292.808411 
	C569.742615,303.587585 567.645874,315.073303 564.183655,326.153351 
	C557.896423,346.273987 552.297974,366.610748 545.947266,386.710419 
	C540.201294,404.895691 539.927856,404.809296 555.064941,417.427979 
z"/>
<path fill="#000000" opacity="1.000000" stroke="none" 
	d="
M812.272705,538.250122 
	C822.473389,529.768433 832.570740,521.742676 843.383362,514.009033 
	C844.833252,517.376770 843.083191,519.161987 841.905701,521.034668 
	C831.982483,536.816162 819.544800,550.524414 805.785400,562.914124 
	C788.470886,578.505005 771.054260,594.027893 751.393860,606.766785 
	C724.547058,624.162048 696.702148,639.843933 668.740112,655.330017 
	C642.934570,669.621765 616.559509,682.774658 588.859619,692.995850 
	C559.680725,703.762756 530.236755,713.792175 500.477234,722.866638 
	C498.976746,723.324219 497.093628,723.228027 496.062866,725.454895 
	C500.642944,728.061707 505.792877,728.545959 510.669708,729.519714 
	C534.951660,734.368042 559.319824,738.773315 583.818420,742.392944 
	C587.579590,742.948608 591.466675,742.645386 595.294983,742.755676 
	C597.366577,742.815308 598.743225,741.809143 599.700623,740.046326 
	C600.256470,739.022888 600.854126,738.014893 601.517212,737.058350 
	C603.560669,734.110779 605.821289,731.251709 609.920959,731.897095 
	C613.796570,732.507141 615.051025,735.743958 616.085144,739.005981 
	C616.135498,739.164856 616.183838,739.324341 616.234802,739.482971 
	C618.962341,747.976135 618.981323,747.788757 628.021729,748.703979 
	C645.713196,750.494934 663.361023,752.734985 681.065613,754.371155 
	C693.981995,755.564880 706.960938,756.078369 719.910400,756.920166 
	C722.555603,757.092163 724.757751,756.133545 726.868652,754.646729 
	C731.571716,751.333862 736.826660,750.145935 742.521118,750.850403 
	C750.982361,751.897156 756.086975,758.006042 755.289001,766.295410 
	C754.628906,773.153076 751.154419,778.594299 745.955383,782.817566 
	C741.539246,786.404968 736.734924,784.210205 732.166870,782.789185 
	C727.568726,781.358887 724.953613,782.484680 722.964783,787.299622 
	C714.691345,807.329102 700.320435,821.513367 680.368042,830.000671 
	C656.888489,839.988342 623.367676,831.928772 608.920105,812.651978 
	C600.908752,801.962708 596.716431,789.863831 596.659790,776.416077 
	C596.628662,769.021423 596.295532,768.589661 589.158020,767.240540 
	C564.509949,762.581116 539.814453,758.161804 515.214722,753.260620 
	C491.753113,748.586182 468.390442,743.415344 444.980530,738.480469 
	C437.683502,736.942261 430.739594,739.441406 423.797577,740.800720 
	C398.525696,745.749207 373.295868,750.931335 348.126648,756.378784 
	C328.465027,760.634277 308.659729,764.041077 288.795197,767.093079 
	C283.559387,767.897522 282.195740,770.471863 282.314697,775.155273 
	C282.727936,791.429016 277.470947,805.503052 265.880219,817.139893 
	C255.852661,827.207397 243.307907,831.569336 229.640518,833.256104 
	C195.783173,837.434570 166.411118,814.293640 156.375961,787.520874 
	C154.006119,781.198425 152.724014,780.867920 145.725021,782.872559 
	C136.854630,785.413147 132.764053,784.009216 128.275986,776.884094 
	C122.968803,768.458557 122.602737,761.424133 127.195679,756.126160 
	C132.092636,750.477539 142.913254,748.901672 149.675934,753.763306 
	C154.916443,757.530640 160.110992,757.775391 166.140961,757.179199 
	C181.032501,755.706665 196.000305,755.016968 210.901276,753.625183 
	C226.613129,752.157715 242.288498,750.288452 257.965942,748.474854 
	C260.650085,748.164368 262.531403,746.643372 262.685760,743.551453 
	C262.759247,742.079346 263.146118,740.598083 263.567566,739.173218 
	C264.466003,736.135742 265.179901,732.760864 269.070648,732.227295 
	C272.869232,731.706482 275.970428,733.867432 277.192627,736.928284 
	C279.906250,743.724365 284.502563,743.759094 290.797638,743.137329 
	C311.190643,741.123230 331.202789,737.026550 351.272766,733.198303 
	C360.255066,731.484985 369.205139,729.595764 378.143280,727.663574 
	C379.968079,727.269104 382.163879,727.306824 383.432098,724.982422 
	C380.773651,722.141174 377.024963,721.579163 373.688354,720.594910 
	C337.753540,709.995239 302.441467,697.539551 267.630249,683.791260 
	C246.887985,675.599304 227.376984,664.580444 207.805374,653.846375 
	C179.320801,638.224121 150.715317,622.680664 124.138969,604.006958 
	C91.072510,580.772888 59.928635,555.172913 37.090645,521.054749 
	C35.879070,519.244751 33.895557,517.505188 35.034027,514.852417 
	C36.888611,514.314453 37.946476,515.534973 39.080746,516.432922 
	C66.637810,538.248901 94.284447,559.957581 122.852287,580.438477 
	C143.171890,595.005981 164.720047,607.674255 186.446976,620.021057 
	C216.143555,636.896606 246.182205,653.178345 278.158508,665.326172 
	C312.206390,678.260986 346.415894,690.746521 381.740234,700.043152 
	C399.924042,704.828857 418.320770,708.524475 436.551361,712.998474 
	C441.822205,714.292053 446.398163,712.058167 451.171356,711.078186 
	C490.818176,702.938782 529.516113,691.612427 567.739685,678.184998 
	C611.621277,662.770020 653.263672,642.873596 693.657776,620.105957 
	C735.571411,596.481934 774.096619,567.927551 812.272705,538.250122 
M646.101318,773.476257 
	C639.634460,773.730835 633.159180,770.916199 626.586243,773.005310 
	C626.850342,775.726257 627.757324,777.615723 628.778992,779.554138 
	C640.580078,801.944214 674.579163,807.007874 691.175537,799.812195 
	C698.344849,796.703918 703.558777,791.488464 706.342957,784.083374 
	C707.317383,781.491760 707.003052,779.529541 703.551575,779.241760 
	C696.761902,778.675537 689.983948,777.966980 683.203735,777.290710 
	C671.134888,776.087036 659.067932,774.863586 646.101318,773.476257 
M222.195694,799.679077 
	C225.513885,799.128052 228.618713,797.895203 231.597794,796.425720 
	C240.062912,792.250488 246.668091,786.132385 250.801254,777.524475 
	C251.457611,776.157532 252.297165,774.716980 251.286484,773.309265 
	C250.236710,771.847351 248.582550,772.490784 247.120239,772.619934 
	C243.315247,772.956055 239.503281,773.220825 235.703293,773.604980 
	C220.330627,775.159180 204.947327,776.625000 189.598312,778.387634 
	C183.975800,779.033325 178.087845,778.530701 172.599396,780.924255 
	C174.992203,791.647827 181.726624,797.629028 191.296265,800.363708 
	C201.281403,803.217163 211.387543,802.221008 222.195694,799.679077 
z"/>
<path fill="#000000" opacity="1.000000" stroke="none" 
	d="
M302.201172,891.715698 
	C303.899597,894.380066 305.455231,896.712402 307.524811,899.815186 
	C310.492645,892.095215 313.245270,884.898499 316.028229,877.713501 
	C317.193359,874.705383 318.458069,871.906738 322.360657,871.510986 
	C328.725250,870.865540 329.727692,871.981873 329.503143,878.313843 
	C329.297882,884.101868 328.967285,889.896423 330.050293,895.725220 
	C330.959900,900.620850 328.762238,905.547119 329.255341,910.580139 
	C329.515228,913.232849 329.487366,915.711975 331.203461,918.104858 
	C333.443787,921.228455 331.980621,923.070251 328.366547,923.326904 
	C326.708374,923.444641 325.036804,923.385681 323.371307,923.386841 
	C314.558350,923.393005 314.876373,923.476562 317.079102,915.310730 
	C318.785980,908.983032 317.407471,902.483215 316.383575,895.592834 
	C313.112366,902.526367 310.224701,909.163696 308.138153,916.143494 
	C307.582275,918.003052 307.303986,920.276062 304.716064,920.506897 
	C302.112427,920.739197 301.401825,918.530518 300.616180,916.787354 
	C297.760956,910.452332 296.192780,903.535706 291.564697,897.368469 
	C290.761658,905.063538 289.277893,912.328674 293.284729,919.274963 
	C294.188904,920.842468 294.012299,922.365662 292.151489,922.868958 
	C289.239746,923.656555 286.191711,923.722473 283.281738,922.891296 
	C281.679993,922.433899 280.554474,920.817871 281.819519,919.390625 
	C286.730743,913.849304 284.251099,907.364807 284.411255,901.246948 
	C284.641022,892.471252 284.607849,883.688904 284.762421,874.910828 
	C284.803162,872.597656 286.453308,871.841553 288.490906,871.749512 
	C291.915588,871.594788 294.821472,872.512512 296.192535,875.999451 
	C298.200745,881.106689 300.108063,886.253601 302.201172,891.715698 
z"/>
<path fill="#000000" opacity="1.000000" stroke="none" 
	d="
M406.732422,923.123779 
	C405.036163,922.306091 404.014374,921.043701 404.901215,919.786987 
	C410.121216,912.389404 407.009460,904.609436 406.456665,895.994263 
	C402.972046,902.890381 400.519653,909.183167 398.267975,915.563721 
	C397.552155,917.592102 396.985504,920.028381 394.249939,919.972595 
	C391.832977,919.923340 391.176270,917.592529 390.440002,915.824829 
	C387.523407,908.822571 384.760193,901.756409 381.483063,894.819153 
	C381.161041,903.193787 378.480408,911.619873 382.961029,919.648315 
	C383.841125,921.225281 382.872131,922.224731 381.471405,922.708191 
	C379.209045,923.489197 376.888916,923.433777 374.615540,922.674072 
	C372.634705,922.012146 371.827850,920.723022 373.184235,918.905945 
	C374.933990,916.561890 374.989899,913.898010 374.743408,911.264587 
	C373.704834,900.169189 375.436218,889.092285 374.844360,878.005920 
	C374.706970,875.431946 374.597626,872.696594 377.869385,872.048462 
	C381.262421,871.376343 384.163208,872.351807 385.686188,875.804077 
	C387.496246,879.906921 389.636566,883.917847 390.922150,888.183167 
	C392.205963,892.442627 394.699127,895.743347 397.567963,899.507141 
	C400.459412,892.433105 403.201080,885.703430 405.964447,878.982788 
	C406.531982,877.602417 407.090607,876.205811 407.808746,874.902405 
	C409.798340,871.291321 413.209625,871.379272 416.570312,871.895447 
	C420.266876,872.463257 419.281586,875.551941 419.296295,877.871460 
	C419.363556,888.476562 419.318939,899.082275 419.310211,909.687805 
	C419.307495,912.995789 419.156067,916.180664 421.334259,919.196899 
	C423.429688,922.098450 420.831085,923.097107 418.565125,923.230713 
	C414.758331,923.455017 410.926453,923.252991 406.732422,923.123779 
z"/>
<path fill="#000000" opacity="1.000000" stroke="none" 
	d="
M586.302246,902.832031 
	C586.193665,906.728882 585.999817,910.228455 586.211670,913.703369 
	C586.458557,917.754578 588.493347,918.910339 592.199280,917.208252 
	C595.627991,915.633484 597.987671,912.844238 600.086731,909.774353 
	C601.243896,908.081909 602.127502,905.297180 604.773438,906.170959 
	C607.363892,907.026550 606.660400,909.662476 606.439331,911.801636 
	C606.354004,912.627258 606.377014,913.463379 606.327332,914.293396 
	C605.844116,922.372742 604.825317,923.336121 596.720581,923.340271 
	C590.065735,923.343628 583.409912,923.400208 576.756348,923.306641 
	C570.960754,923.225159 570.894043,922.521912 572.892273,917.170471 
	C574.901794,911.788574 573.456482,906.008423 573.436951,900.390808 
	C573.407043,891.796570 573.667969,883.200134 573.894409,874.606995 
	C573.948364,872.558899 575.454346,871.725403 577.311951,871.755371 
	C585.287292,871.884033 593.265686,871.982666 601.234070,872.309753 
	C604.502441,872.443909 606.461426,874.343872 606.311768,877.833862 
	C606.164307,881.273132 606.904480,884.778564 605.755005,888.159851 
	C602.612244,889.095032 601.467957,886.880859 600.180603,884.977417 
	C597.880127,881.575989 595.020996,878.855103 590.993774,877.687744 
	C588.241394,876.889832 586.338928,877.699646 586.285889,880.913879 
	C586.225586,884.572021 586.233948,888.231934 586.261414,891.890686 
	C586.274902,893.682373 586.770935,895.338562 588.869324,895.520081 
	C591.030823,895.707092 592.926208,894.910339 593.488586,892.620300 
	C593.967346,890.670715 593.828613,888.228821 596.851379,888.986511 
	C599.433228,889.633850 599.922852,891.943237 599.637268,894.165588 
	C599.312805,896.690430 599.630493,899.080261 599.927856,901.567261 
	C600.211182,903.937073 599.229004,906.444397 596.566467,906.988342 
	C594.020264,907.508362 594.092468,905.097778 593.473877,903.398621 
	C592.137207,899.726929 589.721130,899.457642 586.302246,902.832031 
z"/>
<path fill="#000000" opacity="1.000000" stroke="none" 
	d="
M143.355316,917.621399 
	C148.092819,915.874817 149.476501,912.330566 149.631409,908.053162 
	C149.691666,906.389465 149.566437,904.717163 149.665314,903.057129 
	C149.787750,901.001282 148.786606,898.325806 151.377731,897.298645 
	C154.200317,896.179626 157.254822,896.193970 160.079163,897.674866 
	C160.632736,897.965088 161.429657,898.570923 161.425720,899.025146 
	C161.381714,904.100342 163.355576,910.438171 160.075531,913.935852 
	C154.030289,920.382263 146.782440,926.287476 136.437134,923.379883 
	C131.031433,921.860535 126.767761,918.928345 123.818932,914.249573 
	C114.874428,900.057983 117.434410,887.508789 127.682518,875.520996 
	C132.120468,870.329712 138.817398,870.980713 144.988434,872.082642 
	C147.900925,872.602722 150.613571,874.072510 153.752777,873.349487 
	C155.426056,872.964111 156.620117,873.913330 157.183090,875.544067 
	C158.518311,879.411804 158.414444,883.409241 158.163589,887.403564 
	C158.084152,888.668457 157.324478,889.649780 156.020370,889.819519 
	C154.112091,890.067871 152.848801,888.933167 152.035751,887.384766 
	C150.385483,884.242126 148.415009,881.401428 145.369827,879.445068 
	C140.313721,876.196899 136.289642,877.373169 134.378113,882.982300 
	C133.048691,886.883362 131.906525,890.874023 133.204498,895.151978 
	C134.623840,899.829773 131.623993,904.367188 133.042389,909.385437 
	C134.988022,916.268860 135.842773,917.684387 143.355316,917.621399 
z"/>
<path fill="#000000" opacity="1.000000" stroke="none" 
	d="
M723.019409,912.107544 
	C726.050110,902.238586 728.971802,892.745972 731.854797,883.241577 
	C732.384827,881.494202 732.798218,879.708130 733.192810,877.923828 
	C733.635010,875.924622 732.341553,873.054688 734.953491,872.155396 
	C738.241455,871.023376 741.815369,870.615662 745.229919,872.005005 
	C746.816833,872.650757 747.097595,874.196716 747.230530,875.749268 
	C747.858276,883.080505 749.514954,890.114563 753.219727,896.567932 
	C754.070984,898.050842 754.018433,899.745178 754.213745,901.405579 
	C754.901001,907.248962 756.879639,912.695862 759.673828,917.860535 
	C761.711121,921.626221 761.081360,922.915833 756.856934,923.266174 
	C754.539429,923.458435 752.193237,923.380310 749.862488,923.323547 
	C744.090271,923.182983 743.844666,922.677734 745.370300,917.147827 
	C746.311096,913.737427 745.529846,910.073425 742.985107,907.952942 
	C740.450073,905.840515 736.061523,905.206665 733.516846,906.830750 
	C729.982239,909.086487 728.929138,913.559937 729.751648,917.905579 
	C730.147766,919.998352 730.791016,922.211975 728.203247,922.875061 
	C725.376160,923.599548 722.212524,924.274963 719.716614,921.842957 
	C718.449463,920.608276 719.435974,919.335449 720.295044,918.318176 
	C721.738525,916.608826 722.638367,914.697327 723.019409,912.107544 
M739.544189,895.442810 
	C739.314087,893.909668 739.313232,892.260681 737.662903,891.291382 
	C734.046509,898.153809 734.325195,899.839905 739.540344,900.975952 
	C739.540344,899.293518 739.540344,897.701843 739.544189,895.442810 
z"/>
<path fill="#000000" opacity="1.000000" stroke="none" 
	d="
M211.566162,921.737915 
	C207.739182,923.563354 204.314651,923.705017 200.597839,921.305176 
	C205.240555,914.251404 206.255127,906.342163 208.652100,898.874817 
	C211.225723,890.856934 214.512054,883.056763 216.460281,874.787598 
	C217.332901,871.083862 220.706055,871.598511 223.502701,871.784973 
	C226.245239,871.967773 228.003830,873.133118 228.390015,876.334595 
	C229.188904,882.957214 231.141571,889.326965 234.184753,895.271301 
	C235.239319,897.331299 235.009033,899.483154 235.566605,901.529175 
	C237.133240,907.278076 238.087067,913.239136 241.348602,918.430786 
	C243.188248,921.359192 241.734940,922.819458 238.766190,923.101135 
	C236.617126,923.304932 234.436035,923.239197 232.271179,923.195862 
	C226.587936,923.082214 226.418594,922.687378 227.583145,916.992676 
	C228.320816,913.385254 227.344009,909.699585 224.845230,907.263794 
	C222.379288,904.859924 218.491333,905.872681 215.279556,905.812195 
	C212.982727,905.768860 210.108810,914.485779 211.086243,917.660522 
	C211.470047,918.907043 212.417709,920.018250 211.566162,921.737915 
M219.789688,901.172180 
	C220.754425,901.345703 221.612289,901.018921 221.523987,900.002258 
	C221.244171,896.780945 220.791336,893.574646 220.405411,890.362549 
	C217.790024,893.848816 215.310837,897.191833 219.789688,901.172180 
z"/>
<path fill="#000000" opacity="1.000000" stroke="none" 
	d="
M463.566132,922.960205 
	C460.855652,922.082275 460.477783,920.702148 461.733704,918.653625 
	C465.449097,912.593323 466.240753,905.669678 468.018463,898.968201 
	C469.461304,893.529114 472.221497,888.281555 473.909363,882.759094 
	C474.492157,880.852234 475.397705,879.022400 475.789062,877.083435 
	C476.472290,873.698730 478.080261,871.712402 481.794189,871.735413 
	C485.642944,871.759277 487.297607,873.835388 488.285553,877.330750 
	C491.792053,889.736938 495.597626,902.058655 499.080627,914.471191 
	C499.731873,916.792114 501.678162,918.344055 502.070923,920.677063 
	C499.119781,923.120544 491.125824,924.128357 488.064911,922.605408 
	C485.682861,921.420166 486.508911,919.948853 487.113037,918.061218 
	C489.548035,910.452881 485.007080,904.775330 477.155701,905.383423 
	C473.375031,905.676270 470.830627,910.254456 471.088593,916.300171 
	C471.385956,923.269226 471.385956,923.269226 463.566132,922.960205 
M477.145813,892.880920 
	C476.061615,896.169861 475.480591,899.430969 478.478058,902.076599 
	C480.271820,903.659790 482.538635,903.455627 482.290039,900.935974 
	C481.900299,896.985596 482.597534,892.605530 479.809509,889.102966 
	C478.077759,889.603149 477.877594,891.024353 477.145813,892.880920 
z"/>
<path fill="#000000" opacity="1.000000" stroke="none" 
	d="
M657.619751,891.653809 
	C657.272400,886.840454 658.555420,882.317017 656.394958,877.425415 
	C651.154053,880.127441 650.318176,886.122437 645.491699,889.315552 
	C642.099182,885.103027 643.592041,880.208069 644.010559,875.821777 
	C644.351257,872.251526 647.935974,874.058838 650.163818,873.546814 
	C656.136108,872.174316 661.974121,870.229492 668.278503,871.602600 
	C671.832764,872.376709 675.493042,872.663391 679.104492,873.176819 
	C680.918945,873.434814 682.129333,874.244202 682.450562,876.254150 
	C683.083252,880.212952 683.335693,884.102722 681.546387,888.158813 
	C675.979797,886.503052 675.510986,879.643799 670.381287,877.843384 
	C667.988281,878.834900 668.284241,881.008667 668.378174,882.913025 
	C668.866821,892.813477 668.935425,902.708984 668.355286,912.606506 
	C668.245667,914.475769 668.579651,916.237610 669.545471,917.874084 
	C671.381287,920.984436 669.986938,922.538757 666.879761,923.034302 
	C665.249268,923.294373 663.568359,923.308411 661.910034,923.311951 
	C654.739258,923.327148 654.590759,922.913269 656.945312,916.273804 
	C658.472412,911.967773 658.040833,907.310059 657.309753,902.949402 
	C656.682800,899.209595 656.840698,895.710022 657.619751,891.653809 
z"/>
</svg>
