<svg xmlns="http://www.w3.org/2000/svg" viewBox="0 0 900 980" role="img" aria-labelledby="title desc">
  <title id="title">KA Gamma Eta Mark</title>
  <desc id="desc">KA monogram with crossed sabers and Gamma Eta wordmark in garnet and gold.</desc>
  <defs>
    <linearGradient id="kaGarnet" x1="0" y1="0" x2="0" y2="1">
      <stop offset="0" stop-color="#9E2235"/>
      <stop offset="1" stop-color="#5C1A26"/>
    </linearGradient>
    <linearGradient id="kaGold" x1="0" y1="0" x2="1" y2="1">
      <stop offset="0" stop-color="#E7C678"/>
      <stop offset="1" stop-color="#B89A4A"/>
    </linearGradient>
  </defs>

  <g fill="none" stroke-linecap="round" stroke-linejoin="round">
    <text x="450" y="340" text-anchor="middle" font-family="Georgia, 'Times New Roman', serif" font-size="300" font-weight="700" letter-spacing="8" fill="url(#kaGarnet)">KA</text>

    <path d="M70 455 C 230 650, 670 650, 830 455" stroke="url(#kaGold)" stroke-width="20"/>

    <path d="M140 710 Q 450 680 760 710" stroke="url(#kaGarnet)" stroke-width="18"/>
    <path d="M760 710 Q 450 780 140 710" stroke="url(#kaGold)" stroke-width="14"/>

    <circle cx="140" cy="710" r="14" fill="url(#kaGarnet)"/>
    <circle cx="760" cy="710" r="14" fill="url(#kaGarnet)"/>

    <path d="M165 718c6 28 25 47 59 47 33 0 53-18 58-47" stroke="url(#kaGold)" stroke-width="11"/>
    <path d="M620 718c6 28 25 47 59 47 33 0 53-18 58-47" stroke="url(#kaGold)" stroke-width="11"/>
  </g>

  <text x="450" y="890" text-anchor="middle" font-family="Georgia, 'Times New Roman', serif" font-size="74" letter-spacing="16" fill="url(#kaGold)">GAMMA ETA</text>
</svg>
